<?xml version="1.0" encoding="UTF-8" standalone="no"?>
<svg
   xmlns:dc="http://purl.org/dc/elements/1.1/"
   xmlns:cc="http://creativecommons.org/ns#"
   xmlns:rdf="http://www.w3.org/1999/02/22-rdf-syntax-ns#"
   xmlns:svg="http://www.w3.org/2000/svg"
   xmlns="http://www.w3.org/2000/svg"
   xmlns:sodipodi="http://sodipodi.sourceforge.net/DTD/sodipodi-0.dtd"
   xmlns:inkscape="http://www.inkscape.org/namespaces/inkscape"
   version="1.1"
   data-icon="social"
   width="128"
   height="128"
   class="iconic iconic-social"
   viewBox="0 0 128 128"
   id="svg2"
   inkscape:version="0.91 r13725"
   sodipodi:docname="github.svg">
  <metadata
     id="metadata18">
    <rdf:RDF>
      <cc:Work
         rdf:about="">
        <dc:format>image/svg+xml</dc:format>
        <dc:type
           rdf:resource="http://purl.org/dc/dcmitype/StillImage" />
      </cc:Work>
    </rdf:RDF>
  </metadata>
  <defs
     id="defs16" />
  <sodipodi:namedview
     pagecolor="#ffffff"
     bordercolor="#666666"
     borderopacity="1"
     objecttolerance="10"
     gridtolerance="10"
     guidetolerance="10"
     inkscape:pageopacity="0"
     inkscape:pageshadow="2"
     inkscape:window-width="711"
     inkscape:window-height="480"
     id="namedview14"
     showgrid="false"
     inkscape:zoom="1.84375"
     inkscape:cx="-3.5254237"
     inkscape:cy="64"
     inkscape:window-x="0"
     inkscape:window-y="0"
     inkscape:window-maximized="0"
     inkscape:current-layer="svg2" />
  <g
     id="g4">
    <title
       id="title6">Social</title>
  </g>
  <g
     data-width="32"
     data-height="32"
     class="iconic-md iconic-container"
     display="inline"
     transform="scale(4)"
     id="g8"
     style="fill:#4e4e4f;fill-opacity:1">
    <g
       class="iconic-social-github"
       id="g10"
       style="fill:#4e4e4f;fill-opacity:1">
      <path
         fill-rule="evenodd"
         clip-rule="evenodd"
         d="M15.999 0c-8.835 0-15.999 7.163-15.999 16.001 0 7.068 4.584 13.065 10.943 15.181.8.147 1.092-.347 1.092-.771 0-.38-.014-1.386-.022-2.721-4.451.967-5.39-2.145-5.39-2.145-.728-1.848-1.776-2.34-1.776-2.34-1.453-.993.11-.973.11-.973 1.606.113 2.451 1.649 2.451 1.649 1.427 2.445 3.745 1.739 4.656 1.329.145-1.034.559-1.739 1.016-2.139-3.553-.404-7.288-1.776-7.288-7.908 0-1.747.623-3.175 1.647-4.293-.164-.405-.713-2.032.157-4.234 0 0 1.343-.43 4.4 1.64 1.276-.355 2.645-.532 4.006-.539 1.359.006 2.728.184 4.006.539 3.055-2.07 4.396-1.64 4.396-1.64.873 2.203.324 3.83.159 4.234 1.025 1.119 1.645 2.547 1.645 4.293 0 6.147-3.741 7.499-7.305 7.895.575.494 1.086 1.47 1.086 2.963 0 2.139-.02 3.865-.02 4.389 0 .428.288.926 1.1.769 6.352-2.12 10.933-8.113 10.933-15.18 0-8.838-7.164-16.001-16.001-16.001z"
         class="iconic-property-fill"
         id="path12"
         style="fill:#4e4e4f;fill-opacity:1" />
    </g>
  </g>
</svg>
