<?xml version="1.0" encoding="UTF-8" standalone="no"?>
<svg
   xmlns:dc="http://purl.org/dc/elements/1.1/"
   xmlns:cc="http://creativecommons.org/ns#"
   xmlns:rdf="http://www.w3.org/1999/02/22-rdf-syntax-ns#"
   xmlns:svg="http://www.w3.org/2000/svg"
   xmlns="http://www.w3.org/2000/svg"
   xmlns:sodipodi="http://sodipodi.sourceforge.net/DTD/sodipodi-0.dtd"
   xmlns:inkscape="http://www.inkscape.org/namespaces/inkscape"
   version="1.1"
   data-icon="social"
   width="128"
   height="128"
   class="iconic iconic-social"
   viewBox="0 0 128 128"
   id="svg2"
   inkscape:version="0.91 r13725"
   sodipodi:docname="linkedin.svg">
  <metadata
     id="metadata18">
    <rdf:RDF>
      <cc:Work
         rdf:about="">
        <dc:format>image/svg+xml</dc:format>
        <dc:type
           rdf:resource="http://purl.org/dc/dcmitype/StillImage" />
      </cc:Work>
    </rdf:RDF>
  </metadata>
  <defs
     id="defs16" />
  <sodipodi:namedview
     pagecolor="#ffffff"
     bordercolor="#666666"
     borderopacity="1"
     objecttolerance="10"
     gridtolerance="10"
     guidetolerance="10"
     inkscape:pageopacity="0"
     inkscape:pageshadow="2"
     inkscape:window-width="711"
     inkscape:window-height="480"
     id="namedview14"
     showgrid="false"
     inkscape:zoom="1.84375"
     inkscape:cx="-3.5254237"
     inkscape:cy="64"
     inkscape:window-x="0"
     inkscape:window-y="0"
     inkscape:window-maximized="0"
     inkscape:current-layer="svg2" />
  <g
     id="g4">
    <title
       id="title6">Social</title>
  </g>
  <g
     data-width="16"
     data-height="16"
     class="iconic-sm iconic-container"
     display="inline"
     transform="scale(8)"
     id="g8"
     style="fill:#4e4e4f;fill-opacity:1">
    <g
       class="iconic-social-linkedin"
       id="g10"
       style="fill:#4e4e4f;fill-opacity:1">
      <path
         d="M14.815 0h-13.634c-.652 0-1.181.517-1.181 1.153v13.693c0 .637.529 1.154 1.181 1.154h13.634c.652 0 1.185-.517 1.185-1.155v-13.693c0-.636-.533-1.153-1.185-1.153zm-10.07 13.634h-2.374v-7.635h2.374v7.635zm-1.187-8.679c-.761 0-1.376-.617-1.376-1.376 0-.759.615-1.376 1.376-1.376.759 0 1.375.617 1.375 1.376 0 .76-.617 1.376-1.375 1.376zm10.075 8.679h-2.37v-3.713c0-.886-.017-2.025-1.234-2.025-1.235 0-1.423.965-1.423 1.961v3.777h-2.372v-7.635h2.277v1.043h.032c.317-.6 1.091-1.233 2.246-1.233 2.401 0 2.845 1.581 2.845 3.638v4.188z"
         class="iconic-property-fill"
         id="path12"
         style="fill:#4e4e4f;fill-opacity:1" />
    </g>
  </g>
</svg>
