<?xml version="1.0" encoding="UTF-8" standalone="no"?>
<svg
   xmlns:dc="http://purl.org/dc/elements/1.1/"
   xmlns:cc="http://creativecommons.org/ns#"
   xmlns:rdf="http://www.w3.org/1999/02/22-rdf-syntax-ns#"
   xmlns:svg="http://www.w3.org/2000/svg"
   xmlns="http://www.w3.org/2000/svg"
   xmlns:sodipodi="http://sodipodi.sourceforge.net/DTD/sodipodi-0.dtd"
   xmlns:inkscape="http://www.inkscape.org/namespaces/inkscape"
   version="1.1"
   data-icon="social"
   width="128"
   height="64"
   class="iconic iconic-social"
   viewBox="0 0 128 64"
   id="svg2"
   inkscape:version="0.91 r13725"
   sodipodi:docname="youtube-gray.svg">
  <metadata
     id="metadata24">
    <rdf:RDF>
      <cc:Work
         rdf:about="">
        <dc:format>image/svg+xml</dc:format>
        <dc:type
           rdf:resource="http://purl.org/dc/dcmitype/StillImage" />
        <dc:title></dc:title>
      </cc:Work>
    </rdf:RDF>
  </metadata>
  <defs
     id="defs22" />
  <sodipodi:namedview
     pagecolor="#ffffff"
     bordercolor="#666666"
     borderopacity="1"
     objecttolerance="10"
     gridtolerance="10"
     guidetolerance="10"
     inkscape:pageopacity="0"
     inkscape:pageshadow="2"
     inkscape:window-width="1920"
     inkscape:window-height="1017"
     id="namedview20"
     showgrid="false"
     inkscape:zoom="1.84375"
     inkscape:cx="-268.47458"
     inkscape:cy="64"
     inkscape:window-x="1912"
     inkscape:window-y="-8"
     inkscape:window-maximized="1"
     inkscape:current-layer="svg2" />
  <g
     id="g4"
     transform="translate(0,-64)">
    <title
       id="title6">Social</title>
  </g>
  <g
     id="g4138"
     transform="translate(0,-26.708)"
     style="fill:#4e4e4f;fill-opacity:1">
    <path
       inkscape:connector-curvature="0"
       id="path12"
       class="iconic-social-youtube-you iconic-social-youtube-you-u iconic-property-fill"
       d="m 47.776,75.224 -4.856,0 0,-2.808 c -1.84,2.112 -3.4,3.176 -5.104,3.176 -1.488,0 -2.528,-0.704 -3.048,-1.976 -0.32,-0.776 -0.536,-1.984 -0.536,-3.752 l 0,-20.44 4.856,0 0,19.16 c 0,1.088 0,1.536 0,1.792 0.112,0.72 0.416,0.976 1.032,0.976 0.928,0 1.768,-0.808 2.8,-2.256 l 0,-19.672 4.856,0 0,25.8 z"
       style="fill:#4e4e4f;fill-opacity:1" />
    <path
       inkscape:connector-curvature="0"
       id="path14"
       class="iconic-social-youtube-you iconic-social-youtube-you-o iconic-property-fill"
       d="m 30.656,57.856 c 0,-2.76 -0.552,-4.832 -1.536,-6.128 -1.296,-1.768 -3.32,-2.488 -5.368,-2.488 -2.312,0 -4.072,0.72 -5.368,2.488 -0.992,1.304 -1.528,3.4 -1.528,6.152 l -0.008,9.176 c 0,2.744 0.472,4.64 1.472,5.928 1.288,1.76 3.384,2.688 5.432,2.688 2.048,0 4.176,-0.936 5.464,-2.688 0.976,-1.288 1.432,-3.184 1.432,-5.928 l 0,-9.2 z M 25.8,67.56 c 0.256,2.552 -0.536,3.824 -2.048,3.824 -1.504,0 -2.296,-1.272 -2.04,-3.824 l 0,-10.216 c -0.256,-2.552 0.536,-3.752 2.048,-3.752 1.504,0 2.304,1.2 2.048,3.752 l 0,10.216 z"
       style="fill:#4e4e4f;fill-opacity:1" />
    <path
       inkscape:connector-curvature="0"
       id="path16"
       class="iconic-social-youtube-you iconic-social-youtube-you-y iconic-property-fill"
       d="m 11.496,61.176 0,14.048 -5.112,0 0,-14.048 c 0,0 -5.296,-17.224 -6.384,-20.44 l 5.368,0 3.584,13.456 3.568,-13.456 5.368,0 -6.384,20.44 z"
       style="fill:#4e4e4f;fill-opacity:1" />
    <path
       style="fill:#4e4e4f;fill-opacity:1"
       inkscape:connector-curvature="0"
       id="path18"
       class="iconic-social-youtube-tube iconic-property-fill"
       d="m 99.632,56.832 0,10.984 c 0,2.552 -0.6,3.536 -1.936,3.536 -0.76,0 -1.64,-0.392 -2.408,-1.168 l 0.008,-15.496 c 0.776,-0.76 1.648,-1.168 2.408,-1.168 1.336,0 1.936,0.752 1.936,3.304 z m 17.12,-0.232 c 0,-2.36 -0.608,-3.072 -2.144,-3.072 -1.544,0 -2.2,0.648 -2.2,3.04 l 0,2.824 4.344,-0.008 0,-2.792 z M 128,55.816 l 0,5.76 c 0,6.144 -0.76,12.288 -0.76,12.288 0,0 -0.744,5.232 -3.032,7.536 -2.904,3.024 -6.152,3.04 -7.648,3.216 -10.672,0.768 -26.704,0.792 -26.704,0.792 0,0 -19.832,-0.184 -25.936,-0.76 -1.696,-0.32 -5.512,-0.224 -8.408,-3.248 -2.288,-2.304 -3.032,-7.536 -3.032,-7.536 0,0 -0.76,-6.144 -0.76,-12.288 l 0,-5.76 c 0,-6.144 0.76,-12.288 0.76,-12.288 0,0 0.744,-5.232 3.032,-7.536 2.904,-3.024 6.152,-3.04 7.64,-3.216 10.672,-0.768 26.688,-0.768 26.688,-0.768 l 0.032,0 c 0,0 16.016,0 26.688,0.768 1.488,0.176 4.744,0.192 7.648,3.216 2.288,2.304 3.032,7.536 3.032,7.536 0,0 0.76,6.144 0.76,12.288 z m -59.528,-9.968 5.616,0 0,-4.856 -16.096,0.008 0,4.848 5.368,0 0,29.376 5.112,0 0,-29.384 z m 18.392,3.832 -4.856,0 0,19.416 c -1.024,1.448 -1.872,2.256 -2.8,2.256 -0.616,0 -0.92,-0.264 -1.032,-0.976 0,-0.256 0,-0.704 0,-1.792 l 0,-18.904 -4.856,0 0,20.184 c 0,1.776 0.224,2.984 0.536,3.752 0.52,1.272 1.552,1.976 3.048,1.976 1.704,0 3.256,-1.064 5.104,-3.176 l 0,2.808 4.856,0 0,-25.544 z m 17.632,7.664 c 0,-2.416 -0.312,-4.072 -0.616,-5.096 -0.616,-1.912 -1.856,-2.976 -3.696,-2.976 -1.704,0 -3.392,1.048 -4.888,2.888 L 95.304,41 l -4.6,0 0,34.232 4.6,0 0.008,-2.576 c 1.544,1.912 3.232,2.904 4.872,2.904 1.84,0 3.184,-0.984 3.808,-2.88 0.312,-1.08 0.512,-2.752 0.512,-5.112 l 0,-10.216 z m 7.92,10.464 0,-4.584 9.208,0 0,-5.224 c 0,-2.728 -0.536,-4.728 -1.504,-6.016 -1.296,-1.744 -3.136,-2.672 -5.456,-2.672 -2.36,0 -4.2,0.928 -5.544,2.672 -0.984,1.288 -1.56,3.4 -1.56,6.128 l 0,8.944 c 0,2.712 0.632,4.616 1.616,5.888 1.336,1.744 3.176,2.616 5.6,2.616 2.416,0 4.312,-0.912 5.592,-2.768 0.56,-0.816 0.928,-1.744 1.08,-2.768 0.04,-0.464 0.168,-1.52 0.168,-3.008 l 0,-0.72 -4.856,0 c 0,1.856 0.008,2.96 -0.032,3.208 -0.264,1.24 -0.928,1.856 -2.064,1.856 -1.584,0 -2.256,-1.184 -2.24,-3.544 z" />
  </g>
</svg>
